#!OML:ASF E:/inclinewalkrobotboard/Project1/Captureday1/Session1/subject1.ASF
:FULLY-SPECIFIED
:DEGREES
38
root 0 0 0 1.1079657437450754 -3.7401785840121717 1.8028334606575078
lowerback 11.995317865126705 0.8620103653911377 -0.07692732309386674
upperback -4.182518016608638 1.0910380345821056 -0.5396265818032806
thorax -11.297364421954903 0.5003904814647696 -0.7746335287166093
lowerneck -5.922107755397317 1.470122064297359 4.520629496094293
upperneck 18.040861710301574 2.9154623426726243 -8.266531196871718
head 6.6158275660759935 1.0617189003052685 -3.194371790446605
rclavicle -1.2336294435242566E-15 3.9818635756078216E-16
rhumerus 19.641371152258884 14.047414205542898 -47.80819432679503
rradius 72.0705675251652
rwrist 27.21869077965677
rhand -34.88333812781054 -57.52890652760574
rfingers 7.125020000000043
rthumb -8.024845969998736 -87.30846071667706
lclavicle 1.0738421829374957E-15 -2.7169529075353516E-15
lhumerus 20.599417776399235 -12.313563077080216 45.616956614956386
lradius 69.53485056589518
lwrist -22.203893364720404
lhand -44.75677124708649 -70.1502242848594
lfingers 7.125020000000015
lthumb -17.56457106028127 -41.04359863305697
rfemur -25.19115336025015 -2.162444953992445 16.89647866481071
rtibia 54.19814020779537
rfoot -28.22687903120091 -16.764565742197814
rtoes -17.854879074778903
lfemur -27.4428211631508 2.482324706821496 -18.26494696135505
ltibia 53.66167570674625
lfoot -31.88596120148435 -3.2529528080240806
ltoes -19.563662431167074
39
root 0 0 0 1.1079306045462898 -3.7402144045862715 1.8028223383357733
lowerback 11.995319126545747 0.8620081777661985 -0.0769122525845255
upperback -4.182495892351665 1.09103834571629 -0.5396161607196724
thorax -11.29734025609087 0.5003901186078692 -0.774630986309603
lowerneck -5.922011902738995 1.4701061256067254 4.520655014498298
upperneck 18.04078053189361 2.91544433263886 -8.266590288781297
head 6.615784770022128 1.0617108749530222 -3.19439606906898
rclavicle -1.2349316975096839E-15 3.9899639349058125E-16
rhumerus 19.641404975060603 14.04743785476684 -47.80815287467072
rradius 72.07059817499078
rwrist 27.21871789082537
rhand -34.88327825998647 -57.528885070710686
rfingers 7.125020000000043
rthumb -8.024786753252299 -87.30844101913732
lclavicle 1.0718646959853989E-15 -2.7159325927438746E-15
lhumerus 20.599512335484683 -12.313655733028266 45.61691338632978
lradius 69.53491319507751
lwrist -22.203889927885804
lhand -44.756770518828475 -70.15004311489818
lfingers 7.125020000000015
lthumb -17.564568759159066 -41.04342200925528
rfemur -25.19116293403217 -2.1624453977949787 16.896485707183803
rtibia 54.19812670883191
rfoot -28.226913969770763 -16.76458021620885
rtoes -17.854859684579086
lfemur -27.4428058352024 2.4823351963500446 -18.264934510916113
ltibia 53.661643029316366
lfoot -31.88600021875812 -3.2529152925450266
ltoes -19.563806469470347
40
root 0 0 0 1.1079054003832975 -3.7403718936691774 1.8027789133758814
lowerback 11.995073709734736 0.861972507688104 -0.07692718861904033
upperback -4.182658048048312 1.0909843572551339 -0.539601045649754
thorax -11.297378434476766 0.5003660174165614 -0.7745936093105397
lowerneck -5.922094704965366 1.4702412861234566 4.520565307604512
upperneck 18.041395168923092 2.91565477669522 -8.266395957491673
head 6.615993675149298 1.0618039990583323 -3.1943059723467044
rclavicle -1.2505341533172992E-15 4.177130581233131E-16
rhumerus 19.642072744624343 14.047402619121723 -47.807869167135074
rradius 72.07167701475521
rwrist 27.21967213712974
rhand -34.8849008810585 -57.5325155402721
rfingers 7.125020000000043
rthumb -8.02630396463309 -87.31213185368446
lclavicle 1.0372688540422185E-15 -2.6922186380172467E-15
lhumerus 20.59975005709849 -12.312229287859694 45.61960355808329
lradius 69.53456467047246
lwrist -22.20311793645322
lhand -44.75894705773426 -70.16123820260697
lfingers 7.125020000000015
lthumb -17.56651418497832 -41.055166026684674
rfemur -25.19004883013421 -2.1624730423209835 16.89561487344849
rtibia 54.19656944371418
rfoot -28.22533646410238 -16.763848386032844
rtoes -17.85633566440133
lfemur -27.441180607127336 2.481699371059485 -18.264028258870496
ltibia 53.659055460477205
lfoot -31.882805883409787 -3.252579330964989
ltoes -19.567263714438575
41
root 0 0 0 1.1080239282920579 -3.740150738513648 1.8028408327264582
lowerback 11.995271263807133 0.8620093604288799 -0.07695075353840541
upperback -4.182586291244142 1.091030731986185 -0.5396415028886973
thorax -11.297413217090186 0.5003881405092074 -0.7746338224369398
lowerneck -5.922293176808186 1.4701724761495618 4.520566688779716
upperneck 18.041116261944723 2.9155294501163325 -8.266391035043714
head 6.615941290945421 1.0617485802873607 -3.194312491373709
rclavicle -1.2283936646278493E-15 3.966702190742406E-16
rhumerus 19.64157156982487 14.047564495294107 -47.808069178333064
rradius 72.07069999298207
rwrist 27.218726284228598
rhand -34.8833091262227 -57.528921088949495
rfingers 7.125020000000043
rthumb -8.024823501910964 -87.30844535287105
lclavicle 1.0816873379529479E-15 -2.718895131197874E-15
lhumerus 20.599170218361913 -12.31319808795634 45.617193762455166
lradius 69.53475090234748
lwrist -22.203906289447524
lhand -44.756869755252836 -70.15146522105825
lfingers 7.125020000000015
lthumb -17.56469231261561 -41.04484454308593
rfemur -25.190919575224818 -2.1624286552329024 16.89649112940154
rtibia 54.19822597822326
rfoot -28.226719629639597 -16.764422006752685
rtoes -17.855131106230154
lfemur -27.44272378766438 2.482265715819854 -18.264879641471836
ltibia 53.66144435666784
lfoot -31.88571989697117 -3.253062130604743
ltoes -19.563998705874464
42
root 0 0 0 1.1079898258944656 -3.7401673262742863 1.8028360990550536
lowerback 11.995298498756338 0.8620101034548584 -0.07693704683611824
upperback -4.1825470117799135 1.0910351627435249 -0.5396328236587671
thorax -11.297385438773475 0.5003896071004896 -0.7746337151746876
lowerneck -5.92218862680679 1.4701439555106832 4.520602867979542
upperneck 18.04097097454854 2.91549156581776 -8.266471489012076
head 6.615876562110031 1.0617317746430666 -3.1943464654072073
rclavicle -1.2338892046890428E-15 3.991175425432004E-16
rhumerus 19.641343967257782 14.047368496310183 -47.8081707118172
rradius 72.07055337917804
rwrist 27.218715143185555
rhand -34.883330992065446 -57.52890110223758
rfingers 7.125020000000043
rthumb -8.024834148337286 -87.30845385061806
lclavicle 1.0735439955818188E-15 -2.715710693538558E-15
lhumerus 20.599413527810974 -12.313562346509048 45.61704562904622
lradius 69.53484106096052
lwrist -22.203849190590994
lhand -44.756794846207825 -70.15033327985768
lfingers 7.125020000000015
lthumb -17.564602372992503 -41.04372089252633
rfemur -25.191179325163763 -2.1624502328405137 16.896467492358465
rtibia 54.19814651949933
rfoot -28.22682315788285 -16.764542346543436
rtoes -17.854860544836853
lfemur -27.44276036711488 2.482336330805376 -18.264948473461068
ltibia 53.66169184991032
lfoot -31.885875182347036 -3.2530044952288253
ltoes -19.56364877189557
43
root 0 0 0 1.107952819236457 -3.7401894680092025 1.8028301535052256
lowerback 11.995321068017846 0.8620098443079587 -0.07692185070728538
upperback -4.1825080548819855 1.0910385598066616 -0.5396229766030105
thorax -11.297355138031508 0.5003905225029929 -0.7746329335046428
lowerneck -5.922070551062635 1.4701146887695036 4.5206399140552955
upperneck 18.040824545891713 2.9154533434190615 -8.266555236914073
head 6.615809170905848 1.0617149202857052 -3.1943817721139864
rclavicle -1.2350980620757106E-15 3.9921121724787444E-16
rhumerus 19.641361926973964 14.047391548624635 -47.80817559289695
rradius 72.07058788821745
rwrist 27.218737220146078
rhand -34.88338235235838 -57.52903905726906
rfingers 7.125020000000043
rthumb -8.024887558033214 -87.30859532111575
lclavicle 1.071609149549626E-15 -2.7156364538357166E-15
lhumerus 20.599494192285473 -12.313591393736663 45.61699290042402
lradius 69.53488335653748
lwrist -22.203872911048173
lhand -44.75681758790668 -70.15032676341968
lfingers 7.125020000000015
lthumb -17.564614060407006 -41.043711271668585
rfemur -25.19115656825817 -2.162444404475772 16.896485368405553
rtibia 54.198123098655216
rfoot -28.226905520377056 -16.76458111024508
rtoes -17.854860445923023
lfemur -27.442828979193926 2.482321385578443 -18.264936649437615
ltibia 53.66165844280285
lfoot -31.88598750033873 -3.2529261651781907
ltoes -19.563712321616176
44
root 0 0 0 1.107908352245237 -3.7404349063280833 1.8027513059992275
lowerback 11.995057197112079 0.8619800118923391 -0.07687932488996885
upperback -4.182636321081458 1.0910007516295948 -0.5395949314310652
thorax -11.297340988000377 0.5003737034292742 -0.774614663272952
lowerneck -5.92202841157876 1.4702056233277363 4.520619005693652
upperneck 18.041321575676527 2.91561115251267 -8.266490708540957
head 6.615961776469467 1.061782126132024 -3.1943517344234507
rclavicle -1.2280098391965505E-15 4.0069711469903537E-16
rhumerus 19.643239468054567 14.049225559915275 -47.808476980232435
rradius 72.07254917997689
rwrist 27.21838716248255
rhand -34.883093616409425 -57.529250414588844
rfingers 7.125020000000043
rthumb -8.024544444594685 -87.30880604272933
lclavicle 1.0860568695858649E-15 -2.7048156545894752E-15
lhumerus 20.600719802484274 -12.31267273955817 45.61812594385546
lradius 69.5361250443016
lwrist -22.2038791344815
lhand -44.75830073509041 -70.16074740819558
lfingers 7.125020000000015
lthumb -17.56610723162664 -41.05404709523564
rfemur -25.189903015162038 -2.1622962092196336 16.89661506046743
rtibia 54.19714745667037
rfoot -28.2265463257375 -16.764436951313968
rtoes -17.85594299621972
lfemur -27.442914327857064 2.4816837708068835 -18.264283296270076
ltibia 53.65686723582819
lfoot -31.887514171934935 -3.251922665660998
ltoes -19.570363566162303
45
root 0 0 0 1.1080616221665822 -3.7403015060444464 1.8027940149931245
lowerback 11.995031179981924 0.8619719002367112 -0.07691107703405645
upperback -4.182762831638257 1.0909809599148865 -0.5396356146420802
thorax -11.297467675041204 0.5003662183887461 -0.7746339130206579
lowerneck -5.922341012016892 1.4702703993806638 4.520475718952407
upperneck 18.041721977156524 2.9156904309835245 -8.266216753774735
head 6.616148834154888 1.0618180869405784 -3.194239600429355
rclavicle -1.2148790291626365E-15 3.9513454393829956E-16
rhumerus 19.643745434707448 14.050098403134164 -47.808712880380476
rradius 72.07226280694681
rwrist 27.217746386116577
rhand -34.883143721066425 -57.52878031558127
rfingers 7.125020000000043
rthumb -8.024646998798147 -87.30842313994805
lclavicle 1.0993832727983207E-15 -2.719692138910091E-15
lhumerus 20.596592359851705 -12.311483346391096 45.620301366212075
lradius 69.53305070863534
lwrist -22.202480613328373
lhand -44.75722175153661 -70.15559676077105
lfingers 7.125020000000015
lthumb -17.565005245836524 -41.049532366271706
rfemur -25.19108291568565 -2.1623631901555402 16.89616613055516
rtibia 54.19871313685375
rfoot -28.225828168769933 -16.763776155842784
rtoes -17.854893315918588
lfemur -27.441433240328088 2.4820432949954943 -18.264572089369945
ltibia 53.661390110864055
lfoot -31.8837186709716 -3.2537090708652436
ltoes -19.566334473128183
